<svg width="14" height="19" viewBox="0 0 14 19" fill="none" xmlns="http://www.w3.org/2000/svg">
<path d="M13.3636 4.22727L12.6364 4.36364C12.5152 3.60606 12.2879 2.98106 11.9545 2.48864C11.6212 1.98864 11.178 1.61742 10.625 1.375C10.0795 1.125 9.41667 1 8.63636 1C7.21212 1 6.00379 1.36742 5.01136 2.10227C4.01894 2.83712 3.42424 3.78788 3.22727 4.95455C3.08333 5.85606 3.24621 6.60606 3.71591 7.20455C4.19318 7.80303 5 8.25 6.13636 8.54545L8.77273 9.22727C10 9.54545 10.8788 10.0985 11.4091 10.8864C11.947 11.6667 12.1288 12.5985 11.9545 13.6818C11.803 14.6288 11.4242 15.4545 10.8182 16.1591C10.2121 16.8561 9.44318 17.3977 8.51136 17.7841C7.58712 18.1705 6.55303 18.3636 5.40909 18.3636C3.84848 18.3636 2.63258 17.9811 1.76136 17.2159C0.897727 16.4508 0.431818 15.3636 0.363636 13.9545L1.09091 13.8636C1.13636 15.0909 1.52652 16.0265 2.26136 16.6705C2.99621 17.3144 4.04545 17.6364 5.40909 17.6364C6.95455 17.6364 8.26894 17.2538 9.35227 16.4886C10.4356 15.7159 11.0758 14.7197 11.2727 13.5C11.4167 12.6061 11.2576 11.8598 10.7955 11.2614C10.3333 10.6629 9.56818 10.2273 8.5 9.95455L5.90909 9.27273C4.61364 8.93182 3.67424 8.37121 3.09091 7.59091C2.51515 6.81061 2.31818 5.87121 2.5 4.77273C2.65152 3.87121 3.00758 3.08333 3.56818 2.40909C4.12879 1.73485 4.84091 1.21212 5.70455 0.840908C6.57576 0.46212 7.53788 0.272726 8.59091 0.272726C9.96212 0.272726 11.0492 0.609847 11.8523 1.28409C12.6553 1.95076 13.1591 2.93182 13.3636 4.22727Z" fill="black"/>
</svg>
